# xmcd
#
# Track frame offsets: 
#        150
#        8857
#        28292
#        47785
#        67702
#        79167
#        110032
#        128932
#        144135
#        148722
#        169047
#        188452
#        209505
#        231280
#        234610
#        257687
#        277735
#        308080
#
# Disc length: 4647 seconds
#
# Revision: 2
# Processed by: cddbd v1.5.2PL0 Copyright (c) Steve Scherf et al.
# Submitted via: ExactAudioCopy v1.1
#
DISCID=f7122512
DTITLE=Illmatic - Still ill
DYEAR=1999
DGENRE=Deutscher HipHop
TTITLE0=Illtro
TTITLE1=Testament
TTITLE2=What you need
TTITLE3=Chitty bang
TTITLE4=Playa wit da flava gets busy
TTITLE5=Skillz
TTITLE6=Rage against the Machine
TTITLE7=Trauma
TTITLE8=Biddebiddebiddefahrn
TTITLE9=We ride
TTITLE10=Laughin´ at u
TTITLE11=Still ill
TTITLE12=Pull out ya Gutz
TTITLE13=Showbiz
TTITLE14=Labyrinth
TTITLE15=I need ya lovin´
TTITLE16=The Twilight
TTITLE17=Daten-CD
EXTD=
EXTT0=
EXTT1=
EXTT2=
EXTT3=
EXTT4=
EXTT5=
EXTT6=
EXTT7=
EXTT8=
EXTT9=
EXTT10=
EXTT11=
EXTT12=
EXTT13=
EXTT14=
EXTT15=
EXTT16=
EXTT17=
PLAYORDER=
